<svg width="1170" height="1180" viewBox="0 0 1170 1180" fill="none" xmlns="http://www.w3.org/2000/svg">
<circle cx="590" cy="595" r="395" stroke="#EF8354" stroke-width="60"/>
<circle cx="203.5" cy="215.5" r="27.5" fill="#EF8354" stroke="#EF8354" stroke-width="5"/>
<line x1="204.213" y1="216.787" x2="310.279" y2="322.853" stroke="#EF8354" stroke-width="60" stroke-linejoin="round"/>
<circle cx="42.8909" cy="594.95" r="27.5" transform="rotate(-45 42.8909 594.95)" fill="#EF8354" stroke="#EF8354" stroke-width="5"/>
<line x1="44.3051" y1="595.355" x2="194.305" y2="595.355" stroke="#EF8354" stroke-width="60" stroke-linejoin="round"/>
<circle cx="203.5" cy="977.566" r="27.5" transform="rotate(-90 203.5 977.566)" fill="#EF8354" stroke="#EF8354" stroke-width="5"/>
<line x1="204.787" y1="976.853" x2="310.853" y2="870.787" stroke="#EF8354" stroke-width="60" stroke-linejoin="round"/>
<circle cx="589.95" cy="1137.41" r="27.5" transform="rotate(-135 589.95 1137.41)" fill="#EF8354" stroke="#EF8354" stroke-width="5"/>
<line x1="590.355" y1="1136" x2="590.355" y2="986" stroke="#EF8354" stroke-width="60" stroke-linejoin="round"/>
<circle cx="963.566" cy="977.566" r="27.5" transform="rotate(-180 963.566 977.566)" fill="#EF8354" stroke="#EF8354" stroke-width="5"/>
<line x1="962.853" y1="976.279" x2="856.787" y2="870.213" stroke="#EF8354" stroke-width="60" stroke-linejoin="round"/>
<circle cx="1127.41" cy="595.355" r="27.5" transform="rotate(135 1127.41 595.355)" fill="#EF8354" stroke="#EF8354" stroke-width="5"/>
<line x1="1126" y1="594.95" x2="976" y2="594.95" stroke="#EF8354" stroke-width="60" stroke-linejoin="round"/>
<circle cx="963.566" cy="215.5" r="27.5" transform="rotate(90 963.566 215.5)" fill="#EF8354" stroke="#EF8354" stroke-width="5"/>
<line x1="962.279" y1="216.213" x2="856.213" y2="322.279" stroke="#EF8354" stroke-width="60" stroke-linejoin="round"/>
<path d="M524.5 721C520.1 761 526.333 780 530 784.5C530 758.9 559.333 713.5 574 694C589.667 675.5 636.5 631.9 668.5 603.5C700.5 575.1 736.833 521.167 751 496C795.8 428.4 777.167 350.167 766 321.5C753.333 291.5 720.2 245.1 669 185.5C617.8 125.9 611 27.8333 616.5 0.5C560 35.5 528.5 78 528.5 135C528.5 189.252 595 302.5 624.5 380C648.1 442 624.667 508.5 610 534C583.333 579.667 528.9 681 524.5 721Z" fill="#9A8873"/>
<path d="M571 755.5C553.8 839.9 606.667 905.667 633 929C626.6 899.8 656.5 863.333 664 852.5C698.8 813.7 730 786.631 754.5 765.5C767.833 754 800.5 718.5 808.5 650.5C816.5 582.5 794.167 514.833 782 489.5C774.167 518.5 740.6 590.3 669 645.5C597.4 700.7 572.333 742.5 571 755.5Z" fill="#CCE3DE"/>
<path d="M364 654C362 778.8 482.833 872 543.5 903C502.3 845.4 492.833 775.667 489.5 748C487.333 727 485.4 669.6 525 608C564.6 546.4 596.333 487.5 597 466.5C615.8 382.9 542 327.5 513 309.5C533.4 371.5 491.167 434.667 467.5 458.5C381.1 532.1 362.5 619.5 364 654Z" fill="#CCE3DE"/>
<path d="M571 755.5C553.8 839.9 606.667 905.667 633 929C626.6 899.8 656.5 863.333 664 852.5C698.8 813.7 730 786.631 754.5 765.5C767.833 754 800.5 718.5 808.5 650.5C816.5 582.5 794.167 514.833 782 489.5C774.167 518.5 740.6 590.3 669 645.5C597.4 700.7 572.333 742.5 571 755.5Z" stroke="#CCE3DE"/>
<path d="M364 654C362 778.8 482.833 872 543.5 903C502.3 845.4 492.833 775.667 489.5 748C487.333 727 485.4 669.6 525 608C564.6 546.4 596.333 487.5 597 466.5C615.8 382.9 542 327.5 513 309.5C533.4 371.5 491.167 434.667 467.5 458.5C381.1 532.1 362.5 619.5 364 654Z" stroke="#CCE3DE"/>
<path d="M571 755.5C553.8 839.9 606.667 905.667 633 929C626.6 899.8 656.5 863.333 664 852.5C698.8 813.7 730 786.631 754.5 765.5C767.833 754 800.5 718.5 808.5 650.5C816.5 582.5 794.167 514.833 782 489.5C774.167 518.5 740.6 590.3 669 645.5C597.4 700.7 572.333 742.5 571 755.5Z" fill="#6B9080"/>
</svg>
