<svg width="58" height="55" viewBox="0 0 58 55" fill="none" xmlns="http://www.w3.org/2000/svg">
<g filter="url(#filter0_d)">
<path d="M48.2774 28.5705C51.2071 28.5705 52.6719 30.0353 52.6719 32.965V44.8791C52.6719 47.8088 51.2071 49.2736 48.2774 49.2736H36.9492C34.0196 49.2736 32.5547 47.8088 32.5547 44.8791V32.965C32.5547 26.1291 33.2709 20.1721 34.7032 15.0939C36.2006 9.9507 39.0977 5.45852 43.3946 1.61737C44.8269 0.380391 46.0313 0.217631 47.0078 1.12909L51.4024 5.23065C52.3789 6.14211 52.1511 7.24888 50.7188 8.55096C48.5052 10.5041 46.6823 13.3361 45.25 17.0471C43.8828 20.6929 43.1992 24.534 43.1992 28.5705H48.2774ZM16.0508 28.5705C18.9805 28.5705 20.4453 30.0353 20.4453 32.965V44.8791C20.4453 47.8088 18.9805 49.2736 16.0508 49.2736H4.72269C1.793 49.2736 0.328156 47.8088 0.328156 44.8791V32.965C0.328156 26.1291 1.0443 20.1721 2.47659 15.0939C3.97399 9.9507 6.87112 5.45852 11.168 1.61737C12.6003 0.380391 13.8047 0.217631 14.7813 1.12909L19.1758 5.23065C20.1524 6.14211 19.9245 7.24888 18.4922 8.55096C16.2787 10.5041 14.4558 13.3361 13.0235 17.0471C11.6563 20.6929 10.9727 24.534 10.9727 28.5705H16.0508Z" fill="#19191A"/>
</g>
<defs>
<filter id="filter0_d" x="0.328156" y="0.549072" width="57.3438" height="53.7245" filterUnits="userSpaceOnUse" color-interpolation-filters="sRGB">
<feFlood flood-opacity="0" result="BackgroundImageFix"/>
<feColorMatrix in="SourceAlpha" type="matrix" values="0 0 0 0 0 0 0 0 0 0 0 0 0 0 0 0 0 0 127 0"/>
<feOffset dx="5" dy="5"/>
<feColorMatrix type="matrix" values="0 0 0 0 0.8 0 0 0 0 0.890196 0 0 0 0 0.870588 0 0 0 1 0"/>
<feBlend mode="normal" in2="BackgroundImageFix" result="effect1_dropShadow"/>
<feBlend mode="normal" in="SourceGraphic" in2="effect1_dropShadow" result="shape"/>
</filter>
</defs>
</svg>
