<svg width="93" height="90" viewBox="0 0 93 90" fill="none" xmlns="http://www.w3.org/2000/svg">
<g filter="url(#filter0_d)">
<path d="M68.2774 48.5705C71.2071 48.5705 72.6719 50.0353 72.6719 52.965V64.8791C72.6719 67.8088 71.2071 69.2736 68.2774 69.2736H56.9492C54.0196 69.2736 52.5547 67.8088 52.5547 64.8791V52.965C52.5547 46.1291 53.2709 40.1721 54.7032 35.0939C56.2006 29.9507 59.0977 25.4585 63.3946 21.6174C64.8269 20.3804 66.0313 20.2176 67.0078 21.1291L71.4024 25.2307C72.3789 26.1421 72.1511 27.2489 70.7188 28.551C68.5052 30.5041 66.6823 33.3361 65.25 37.0471C63.8828 40.6929 63.1992 44.534 63.1992 48.5705H68.2774ZM36.0508 48.5705C38.9805 48.5705 40.4453 50.0353 40.4453 52.965V64.8791C40.4453 67.8088 38.9805 69.2736 36.0508 69.2736H24.7227C21.793 69.2736 20.3282 67.8088 20.3282 64.8791V52.965C20.3282 46.1291 21.0443 40.1721 22.4766 35.0939C23.974 29.9507 26.8711 25.4585 31.168 21.6174C32.6003 20.3804 33.8047 20.2176 34.7813 21.1291L39.1758 25.2307C40.1524 26.1421 39.9245 27.2489 38.4922 28.551C36.2787 30.5041 34.4558 33.3361 33.0235 37.0471C31.6563 40.6929 30.9727 44.534 30.9727 48.5705H36.0508Z" fill="#19191A"/>
</g>
<defs>
<filter id="filter0_d" x="0.328156" y="0.549072" width="92.3438" height="88.7245" filterUnits="userSpaceOnUse" color-interpolation-filters="sRGB">
<feFlood flood-opacity="0" result="BackgroundImageFix"/>
<feColorMatrix in="SourceAlpha" type="matrix" values="0 0 0 0 0 0 0 0 0 0 0 0 0 0 0 0 0 0 127 0"/>
<feOffset/>
<feGaussianBlur stdDeviation="10"/>
<feColorMatrix type="matrix" values="0 0 0 0 0.8 0 0 0 0 0.890196 0 0 0 0 0.870588 0 0 0 1 0"/>
<feBlend mode="normal" in2="BackgroundImageFix" result="effect1_dropShadow"/>
<feBlend mode="normal" in="SourceGraphic" in2="effect1_dropShadow" result="shape"/>
</filter>
</defs>
</svg>
