<svg width="971" height="536" viewBox="0 0 971 536" fill="none" xmlns="http://www.w3.org/2000/svg">
<rect x="0.00012207" y="0.998535" width="971" height="535" rx="15" fill="#F6FFF8"/>
<path opacity="0.8" fill-rule="evenodd" clip-rule="evenodd" d="M0.00012207 275.966C0.00012207 263.998 13.3277 256.849 23.2978 263.47L54.2143 283.999C107.619 319.999 216.048 391.999 323.667 409.999C431.286 427.999 539.714 391.999 647.333 391.999C754.953 391.999 863.381 427.999 916.786 445.999L960.727 460.588C966.86 462.625 971 468.361 971 474.824V520.999C971 529.284 964.284 535.999 956 535.999H916.786C863.381 535.999 754.953 535.999 647.333 535.999C539.714 535.999 431.286 535.999 323.667 535.999C216.048 535.999 107.619 535.999 54.2143 535.999H15.0001C6.71587 535.999 0.00012207 529.284 0.00012207 520.999V275.966Z" fill="#9A8873"/>
<path opacity="0.8" fill-rule="evenodd" clip-rule="evenodd" d="M1.00012 434.192C1.00012 423.678 11.5356 416.427 21.3561 420.181L41.4168 427.849C81.8335 443.299 162.667 474.199 243.5 479.349C324.333 484.499 405.167 463.899 486 458.749C566.833 453.599 647.667 463.899 728.5 427.849C809.333 391.799 890.167 309.399 930.583 268.199L945.292 253.205C954.699 243.616 971 250.277 971 263.71V520.999C971 529.283 964.284 535.999 956 535.999H930.583C890.167 535.999 809.333 535.999 728.5 535.999C647.667 535.999 566.833 535.999 486 535.999C405.167 535.999 324.333 535.999 243.5 535.999C162.667 535.999 81.8335 535.999 41.4168 535.999H16.0001C7.71586 535.999 1.00012 529.283 1.00012 520.999V434.192Z" fill="#6B9080"/>
</svg>
