<svg width="108" height="108" viewBox="0 0 108 108" fill="none" xmlns="http://www.w3.org/2000/svg">
<path d="M54 0.666626C24.56 0.666626 0.666656 24.56 0.666656 54C0.666656 83.44 24.56 107.333 54 107.333C83.44 107.333 107.333 83.44 107.333 54C107.333 24.56 83.44 0.666626 54 0.666626ZM54 16.6666C62.8533 16.6666 70 23.8133 70 32.6666C70 41.52 62.8533 48.6666 54 48.6666C45.1467 48.6666 38 41.52 38 32.6666C38 23.8133 45.1467 16.6666 54 16.6666ZM54 92.4C40.6667 92.4 28.88 85.5733 22 75.2266C22.16 64.6133 43.3333 58.8 54 58.8C64.6133 58.8 85.84 64.6133 86 75.2266C79.12 85.5733 67.3333 92.4 54 92.4Z" fill="black"/>
</svg>
